Avara-italic.ufo
<glyph name="dollar" format="1">
  <advance width="600"/>
  <unicode hex="0024"/>
  <outline>
    <contour>
      <point x="480" y="880" type="line"/>
      <point x="520" y="880" type="line"/>
      <point x="200" y="-80" type="line"/>
      <point x="160" y="-80" type="line"/>
    </contour>
    <component base="S"/>
  </outline>
</glyph>
<glyph name="asterisk" format="1">
  <advance width="440"/>
  <unicode hex="002A"/>
  <outline>
    <contour>
      <point x="40" y="760" type="line"/>
      <point x="80" y="800" type="line"/>
      <point x="200" y="760" type="line"/>
      <point x="160" y="880" type="line"/>
      <point x="200" y="920" type="line"/>
      <point x="240" y="920" type="line"/>
      <point x="280" y="880" type="line"/>
      <point x="240" y="760" type="line"/>
      <point x="360" y="800" type="line"/>
      <point x="400" y="760" type="line"/>
      <point x="400" y="720" type="line"/>
      <point x="360" y="680" type="line"/>
      <point x="240" y="720" type="line"/>
      <point x="280" y="600" type="line"/>
      <point x="240" y="560" type="line"/>
      <point x="200" y="560" type="line"/>
      <point x="160" y="600" type="line"/>
      <point x="200" y="720" type="line"/>
      <point x="80" y="680" type="line"/>
      <point x="40" y="720" type="line"/>
    </contour>
  </outline>
</glyph>
<glyph name="plus" format="1">
  <advance width="600"/>
  <unicode hex="002B"/>
  <outline>
    <contour>
      <point x="0" y="360" type="line"/>
      <point x="240" y="360" type="line"/>
      <point x="240" y="600" type="line"/>
      <point x="320" y="600" type="line"/>
      <point x="320" y="360" type="line"/>
      <point x="560" y="360" type="line"/>
      <point x="560" y="280" type="line"/>
      <point x="320" y="280" type="line"/>
      <point x="320" y="40" type="line"/>
      <point x="240" y="40" type="line"/>
      <point x="240" y="280" type="line"/>
      <point x="0" y="280" type="line"/>
    </contour>
  </outline>
</glyph>
<glyph name="one" format="1">
  <advance width="480"/>
  <unicode hex="0031"/>
  <outline>
    <contour>
      <point x="360" y="760" type="line"/>
      <point x="440" y="800" type="line"/>
      <point x="200" y="80" type="line"/>
      <point x="280" y="0" type="line"/>
      <point x="-40" y="0" type="line"/>
      <point x="80" y="80" type="line"/>
      <point x="240" y="560" type="line"/>
      <point x="120" y="560" type="line"/>
      <point x="120" y="600" type="line"/>
      <point x="280" y="680" type="line"/>
    </contour>
  </outline>
</glyph>
<glyph name="five" format="1">
  <advance width="640"/>
  <unicode hex="0035"/>
  <outline>
    <contour>
      <point x="600.0" y="680.0" type="line"/>
      <point x="280.0" y="680.0" type="line"/>
      <point x="160" y="440" type="line"/>
      <point x="240" y="480" type="line"/>
      <point x="360" y="520" type="line"/>
      <point x="480" y="480" type="line"/>
      <point x="560.0" y="360.0" type="line"/>
      <point x="560.0" y="200.0" type="line"/>
      <point x="440.0" y="80.0" type="line"/>
      <point x="280.0" y="0.0" type="line"/>
      <point x="200.0" y="0.0" type="line"/>
      <point x="40.0" y="80.0" type="line"/>
      <point x="0.0" y="200.0" type="line"/>
      <point x="80.0" y="320.0" type="line"/>
      <point x="120.0" y="320.0" type="line"/>
      <point x="120.0" y="160.0" type="line"/>
      <point x="160.0" y="80.0" type="line"/>
      <point x="240.0" y="40.0" type="line"/>
      <point x="320.0" y="80.0" type="line"/>
      <point x="440.0" y="200.0" type="line"/>
      <point x="440.0" y="360.0" type="line"/>
      <point x="360" y="440" type="line"/>
      <point x="280" y="440" type="line"/>
      <point x="120" y="360" type="line"/>
      <point x="80" y="400" type="line"/>
      <point x="240.0" y="800.0" type="line"/>
      <point x="640.0" y="800.0" type="line"/>
    </contour>
  </outline>
</glyph>
<glyph name="seven" format="1">
  <advance width="520.0"/>
  <unicode hex="0037"/>
  <outline>
    <contour>
      <point x="160" y="0" type="line"/>
      <point x="0" y="0" type="line"/>
      <point x="200" y="360" type="line"/>
      <point x="400" y="600" type="line"/>
      <point x="560" y="760" type="line"/>
      <point x="280" y="760" type="line"/>
      <point x="200" y="720" type="line"/>
      <point x="200" y="560" type="line"/>
      <point x="160" y="560" type="line"/>
      <point x="80" y="680" type="line"/>
      <point x="80" y="800" type="line"/>
      <point x="600" y="800" type="line"/>
      <point x="600" y="760" type="line"/>
      <point x="440" y="560" type="line"/>
      <point x="280" y="320" type="line"/>
    </contour>
  </outline>
</glyph>
<glyph name="less" format="1">
  <advance width="480"/>
  <unicode hex="003C"/>
  <outline>
    <contour>
      <point x="80" y="280" type="line"/>
      <point x="80" y="359" type="line"/>
      <point x="400" y="600" type="line"/>
      <point x="440" y="520" type="line"/>
      <point x="120" y="320" type="line"/>
      <point x="440" y="120" type="line"/>
      <point x="400" y="40" type="line"/>
    </contour>
  </outline>
</glyph>
<glyph name="equal" format="1">
  <advance width="560"/>
  <unicode hex="003D"/>
  <outline>
    <contour>
      <point x="520" y="360" type="line"/>
      <point x="40" y="360" type="line"/>
      <point x="40" y="440" type="line"/>
      <point x="520" y="440" type="line"/>
    </contour>
    <contour>
      <point x="520" y="200" type="line"/>
      <point x="40" y="200" type="line"/>
      <point x="40" y="280" type="line"/>
      <point x="520" y="280" type="line"/>
    </contour>
  </outline>
</glyph>
<glyph name="greater" format="1">
  <advance width="480"/>
  <unicode hex="003E"/>
  <outline>
    <contour>
      <point x="80" y="40" type="line"/>
      <point x="40" y="120" type="line"/>
      <point x="360" y="320" type="line"/>
      <point x="40" y="520" type="line"/>
      <point x="80" y="600" type="line"/>
      <point x="400" y="359" type="line"/>
      <point x="400" y="280" type="line"/>
    </contour>
  </outline>
</glyph>
<glyph name="A" format="1">
  <advance width="800.0"/>
  <unicode hex="0041"/>
  <outline>
    <contour>
      <point x="240.0" y="0.0" type="line"/>
      <point x="-40" y="0" type="line"/>
      <point x="80.0" y="80.0" type="line"/>
      <point x="560.0" y="720.0" type="line"/>
      <point x="560.0" y="760.0" type="line"/>
      <point x="680.0" y="840.0" type="line"/>
      <point x="680.0" y="80.0" type="line"/>
      <point x="760.0" y="0.0" type="line"/>
      <point x="480.0" y="0.0" type="line"/>
      <point x="560.0" y="80.0" type="line"/>
      <point x="560" y="200" type="line"/>
      <point x="520" y="240" type="line"/>
      <point x="280.0" y="240.0" type="line"/>
      <point x="160.0" y="80.0" type="line"/>
    </contour>
    <contour>
      <point x="560.0" y="640.0" type="line"/>
      <point x="360" y="360" type="line"/>
      <point x="320.0" y="280.0" type="line"/>
      <point x="520.0" y="280.0" type="line"/>
      <point x="560.0" y="320.0" type="line"/>
    </contour>
    <contour>
      <point x="620" y="800" type="move" name="top"/>
    </contour>
  </outline>
</glyph>
<glyph name="G" format="1">
  <advance width="760.0"/>
  <unicode hex="0047"/>
  <outline>
    <contour>
      <point x="200.0" y="240.0" type="line"/>
      <point x="240.0" y="120.0" type="line"/>
      <point x="360.0" y="40.0" type="line"/>
      <point x="400.0" y="40.0" type="line"/>
      <point x="480.0" y="80.0" type="line"/>
      <point x="520.0" y="120.0" type="line"/>
      <point x="560" y="240" type="line"/>
      <point x="520" y="320" type="line"/>
      <point x="760" y="320" type="line"/>
      <point x="680" y="240" type="line"/>
      <point x="600.0" y="120.0" type="line"/>
      <point x="520.0" y="40.0" type="line"/>
      <point x="440.0" y="0.0" type="line"/>
      <point x="280.0" y="0.0" type="line"/>
      <point x="120.0" y="80.0" type="line"/>
      <point x="40.0" y="280.0" type="line"/>
      <point x="80.0" y="480.0" type="line"/>
      <point x="160.0" y="600.0" type="line"/>
      <point x="280.0" y="720.0" type="line"/>
      <point x="440" y="800" type="line"/>
      <point x="560.0" y="800.0" type="line"/>
      <point x="760.0" y="720.0" type="line"/>
      <point x="800.0" y="640.0" type="line"/>
      <point x="720.0" y="560.0" type="line"/>
      <point x="640.0" y="560.0" type="line"/>
      <point x="640.0" y="680.0" type="line"/>
      <point x="560.0" y="760.0" type="line"/>
      <point x="480.0" y="760.0" type="line"/>
      <point x="280.0" y="600.0" type="line"/>
      <point x="200.0" y="360.0" type="line"/>
    </contour>
  </outline>
</glyph>
<glyph name="I" format="1">
  <advance width="400"/>
  <unicode hex="0049"/>
  <outline>
    <contour>
      <point x="200" y="80" type="line"/>
      <point x="280" y="0" type="line"/>
      <point x="-40" y="0" type="line"/>
      <point x="80" y="80" type="line"/>
      <point x="280" y="720" type="line"/>
      <point x="200" y="800" type="line"/>
      <point x="520" y="800" type="line"/>
      <point x="400" y="720" type="line"/>
    </contour>
    <contour>
      <point x="360" y="800" type="move" name="top"/>
    </contour>
  </outline>
</glyph>
<glyph name="P" format="1">
  <advance width="720.0"/>
  <unicode hex="0050"/>
  <outline>
    <contour>
      <point x="200.0" y="80.0" type="line"/>
      <point x="280.0" y="0.0" type="line"/>
      <point x="-40" y="0" type="line"/>
      <point x="80.0" y="80.0" type="line"/>
      <point x="280.0" y="720.0" type="line"/>
      <point x="200.0" y="800.0" type="line"/>
      <point x="520.0" y="800.0" type="line"/>
      <point x="720.0" y="760.0" type="line"/>
      <point x="800.0" y="600.0" type="line"/>
      <point x="640.0" y="400.0" type="line"/>
      <point x="440.0" y="320.0" type="line"/>
      <point x="320" y="360" type="line"/>
      <point x="320" y="400" type="line"/>
      <point x="400.0" y="400.0" type="line"/>
      <point x="520.0" y="440.0" type="line"/>
      <point x="640.0" y="600.0" type="line"/>
      <point x="600.0" y="720.0" type="line"/>
      <point x="520.0" y="760.0" type="line"/>
      <point x="440.0" y="760.0" type="line"/>
      <point x="400.0" y="720.0" type="line"/>
    </contour>
  </outline>
</glyph>
<glyph name="U" format="1">
  <advance width="840"/>
  <unicode hex="0055"/>
  <outline>
    <contour>
      <point x="680.0" y="240.0" type="line"/>
      <point x="600.0" y="120.0" type="line"/>
      <point x="520.0" y="40.0" type="line"/>
      <point x="400" y="0" type="line"/>
      <point x="320" y="0" type="line"/>
      <point x="160.0" y="40.0" type="line"/>
      <point x="80" y="120" type="line"/>
      <point x="80.0" y="240.0" type="line"/>
      <point x="240.0" y="720.0" type="line"/>
      <point x="160.0" y="800.0" type="line"/>
      <point x="480.0" y="800.0" type="line"/>
      <point x="360.0" y="720.0" type="line"/>
      <point x="200" y="240" type="line"/>
      <point x="200.0" y="160.0" type="line"/>
      <point x="240" y="80" type="line"/>
      <point x="320.0" y="40.0" type="line"/>
      <point x="360" y="40" type="line"/>
      <point x="480" y="80" type="line"/>
      <point x="520.0" y="120.0" type="line"/>
      <point x="600.0" y="240.0" type="line"/>
      <point x="720" y="720" type="line"/>
      <point x="640" y="800" type="line"/>
      <point x="960" y="800" type="line"/>
      <point x="840" y="720" type="line"/>
    </contour>
    <contour>
      <point x="600" y="800" type="move" name="top"/>
    </contour>
  </outline>
</glyph>
<glyph name="Y" format="1">
  <advance width="760"/>
  <unicode hex="0059"/>
  <outline>
    <contour>
      <point x="400.0" y="520.0" type="line"/>
      <point x="400" y="440" type="line"/>
      <point x="440.0" y="440.0" type="line"/>
      <point x="680.0" y="720.0" type="line"/>
      <point x="600.0" y="800.0" type="line"/>
      <point x="880.0" y="800.0" type="line"/>
      <point x="760.0" y="720.0" type="line"/>
      <point x="440.0" y="360.0" type="line"/>
      <point x="360.0" y="80.0" type="line"/>
      <point x="440.0" y="0.0" type="line"/>
      <point x="120.0" y="0.0" type="line"/>
      <point x="240.0" y="80.0" type="line"/>
      <point x="320.0" y="360.0" type="line"/>
      <point x="240.0" y="720.0" type="line"/>
      <point x="160.0" y="800.0" type="line"/>
      <point x="440.0" y="800.0" type="line"/>
      <point x="360.0" y="720.0" type="line"/>
    </contour>
    <contour>
      <point x="560" y="800" type="move" name="top"/>
    </contour>
  </outline>
</glyph>
<glyph name="e" format="1">
  <advance width="560.0"/>
  <unicode hex="0065"/>
  <outline>
    <contour>
      <point x="560.0" y="360.0" type="line"/>
      <point x="560.0" y="440.0" type="line"/>
      <point x="520.0" y="520.0" type="line"/>
      <point x="360.0" y="560.0" type="line"/>
      <point x="160.0" y="440.0" type="line"/>
      <point x="40.0" y="200.0" type="line"/>
      <point x="80.0" y="40.0" type="line"/>
      <point x="160" y="0" type="line"/>
      <point x="240" y="0" type="line"/>
      <point x="320" y="40" type="line"/>
      <point x="480" y="200" type="line"/>
      <point x="440" y="240" type="line"/>
      <point x="280" y="80" type="line"/>
      <point x="200" y="80" type="line"/>
      <point x="160.0" y="200.0" type="line"/>
      <point x="240.0" y="360.0" type="line"/>
      <point x="360.0" y="480.0" type="line"/>
      <point x="440.0" y="480.0" type="line"/>
      <point x="440.0" y="360.0" type="line"/>
      <point x="360.0" y="320.0" type="line"/>
      <point x="240.0" y="320.0" type="line"/>
      <point x="240.0" y="280.0" type="line"/>
      <point x="440.0" y="280.0" type="line"/>
    </contour>
    <contour>
      <point x="400" y="560" type="move" name="top"/>
    </contour>
  </outline>
</glyph>
<glyph name="m" format="1">
  <advance width="1040"/>
  <unicode hex="006D"/>
  <outline>
    <contour>
      <point x="640.0" y="360.0" type="line"/>
      <point x="720.0" y="440.0" type="line"/>
      <point x="800.0" y="480.0" type="line"/>
      <point x="840.0" y="440.0" type="line"/>
      <point x="640.0" y="80.0" type="line"/>
      <point x="640.0" y="40.0" type="line"/>
      <point x="680.0" y="0.0" type="line"/>
      <point x="760" y="0" type="line"/>
      <point x="840.0" y="40.0" type="line"/>
      <point x="1040.0" y="240.0" type="line"/>
      <point x="1000.0" y="280.0" type="line"/>
      <point x="800.0" y="80.0" type="line"/>
      <point x="760.0" y="80.0" type="line"/>
      <point x="960" y="400" type="line"/>
      <point x="960.0" y="520.0" type="line"/>
      <point x="840.0" y="560.0" type="line"/>
      <point x="720.0" y="520.0" type="line"/>
      <point x="640.0" y="440.0" type="line"/>
      <point x="640.0" y="520.0" type="line"/>
      <point x="560.0" y="560.0" type="line"/>
      <point x="440.0" y="520.0" type="line"/>
      <point x="320.0" y="400.0" type="line"/>
      <point x="360.0" y="480.0" type="line"/>
      <point x="360.0" y="520.0" type="line"/>
      <point x="320.0" y="560.0" type="line"/>
      <point x="200.0" y="520.0" type="line"/>
      <point x="0.0" y="320.0" type="line"/>
      <point x="40.0" y="280.0" type="line"/>
      <point x="240.0" y="480.0" type="line"/>
      <point x="280.0" y="480.0" type="line"/>
      <point x="40.0" y="40.0" type="line"/>
      <point x="80.0" y="0.0" type="line"/>
      <point x="160.0" y="0.0" type="line"/>
      <point x="320.0" y="320.0" type="line"/>
      <point x="440.0" y="440.0" type="line"/>
      <point x="520.0" y="480.0" type="line"/>
      <point x="560.0" y="440.0" type="line"/>
      <point x="360.0" y="40.0" type="line"/>
      <point x="400.0" y="0.0" type="line"/>
      <point x="480.0" y="0.0" type="line"/>
    </contour>
  </outline>
</glyph>
<glyph name="n" format="1">
  <advance width="760"/>
  <unicode hex="006E"/>
  <outline>
    <contour>
      <point x="0.0" y="320.0" type="line"/>
      <point x="40.0" y="280.0" type="line"/>
      <point x="240.0" y="480.0" type="line"/>
      <point x="280.0" y="480.0" type="line"/>
      <point x="40.0" y="40.0" type="line"/>
      <point x="80.0" y="0.0" type="line"/>
      <point x="160.0" y="0.0" type="line"/>
      <point x="320.0" y="320.0" type="line"/>
      <point x="440.0" y="440.0" type="line"/>
      <point x="520.0" y="480.0" type="line"/>
      <point x="560.0" y="440.0" type="line"/>
      <point x="360.0" y="80.0" type="line"/>
      <point x="360.0" y="40.0" type="line"/>
      <point x="400" y="0" type="line"/>
      <point x="480.0" y="0.0" type="line"/>
      <point x="560.0" y="40.0" type="line"/>
      <point x="760.0" y="240.0" type="line"/>
      <point x="720.0" y="280.0" type="line"/>
      <point x="520.0" y="80.0" type="line"/>
      <point x="480.0" y="80.0" type="line"/>
      <point x="680.0" y="400.0" type="line"/>
      <point x="680.0" y="520.0" type="line"/>
      <point x="560.0" y="560.0" type="line"/>
      <point x="440.0" y="520.0" type="line"/>
      <point x="320.0" y="400.0" type="line"/>
      <point x="360.0" y="480.0" type="line"/>
      <point x="360.0" y="520.0" type="line"/>
      <point x="320.0" y="560.0" type="line"/>
      <point x="200.0" y="520.0" type="line"/>
    </contour>
    <contour>
      <point x="510" y="560" type="move" name="top"/>
    </contour>
  </outline>
</glyph>
<glyph name="v" format="1">
  <advance width="600"/>
  <unicode hex="0076"/>
  <outline>
    <contour>
      <point x="520" y="400" type="line"/>
      <point x="480" y="280" type="line"/>
      <point x="320" y="120" type="line"/>
      <point x="200" y="80" type="line"/>
      <point x="160.0" y="80.0" type="line"/>
      <point x="400.0" y="440.0" type="line"/>
      <point x="400.0" y="520.0" type="line"/>
      <point x="320.0" y="560.0" type="line"/>
      <point x="200.0" y="520.0" type="line"/>
      <point x="0.0" y="320.0" type="line"/>
      <point x="40.0" y="280.0" type="line"/>
      <point x="240.0" y="480.0" type="line"/>
      <point x="280.0" y="480.0" type="line"/>
      <point x="40.0" y="80.0" type="line"/>
      <point x="40.0" y="40.0" type="line"/>
      <point x="80.0" y="0.0" type="line"/>
      <point x="160" y="0" type="line"/>
      <point x="360" y="80" type="line"/>
      <point x="520" y="240" type="line"/>
      <point x="600" y="400" type="line"/>
      <point x="600" y="480" type="line"/>
      <point x="560" y="520" type="line"/>
      <point x="480" y="520" type="line"/>
      <point x="440" y="440" type="line"/>
      <point x="480" y="400" type="line"/>
    </contour>
  </outline>
</glyph>
<glyph name="asciitilde" format="1">
  <advance width="600"/>
  <unicode hex="007E"/>
  <outline>
    <contour>
      <point x="120" y="400" type="line"/>
      <point x="240" y="320" type="line"/>
      <point x="320" y="400" type="line"/>
      <point x="400" y="400" type="line"/>
      <point x="520" y="320" type="line"/>
      <point x="480" y="280" type="line"/>
      <point x="360" y="360" type="line"/>
      <point x="280" y="280" type="line"/>
      <point x="200" y="280" type="line"/>
      <point x="80" y="360" type="line"/>
    </contour>
  </outline>
</glyph>
<glyph name="degree" format="1">
  <advance width="480"/>
  <unicode hex="00B0"/>
  <outline>
    <contour>
      <point x="80" y="760" type="line"/>
      <point x="80" y="680" type="line"/>
      <point x="200" y="560" type="line"/>
      <point x="280" y="560" type="line"/>
      <point x="400" y="680" type="line"/>
      <point x="400" y="760" type="line"/>
      <point x="280" y="880" type="line"/>
      <point x="200" y="880" type="line"/>
    </contour>
    <contour>
      <point x="160" y="680" type="line"/>
      <point x="160" y="760" type="line"/>
      <point x="240" y="840" type="line"/>
      <point x="320" y="760" type="line"/>
      <point x="320" y="680" type="line"/>
      <point x="240" y="600" type="line"/>
    </contour>
  </outline>
</glyph>
<glyph name="plusminus" format="1">
  <advance width="600"/>
  <unicode hex="00B1"/>
  <outline>
    <contour>
      <point x="0" y="480" type="line"/>
      <point x="240" y="480" type="line"/>
      <point x="240" y="720" type="line"/>
      <point x="320" y="720" type="line"/>
      <point x="320" y="480" type="line"/>
      <point x="560" y="480" type="line"/>
      <point x="560" y="400" type="line"/>
      <point x="320" y="400" type="line"/>
      <point x="320" y="160" type="line"/>
      <point x="240" y="160" type="line"/>
      <point x="240" y="400" type="line"/>
      <point x="0" y="400" type="line"/>
    </contour>
    <component base="minus" yOffset="-280"/>
  </outline>
</glyph>
<glyph name="AE" format="1">
  <advance width="1080"/>
  <unicode hex="00C6"/>
  <outline>
    <contour>
      <point x="240.0" y="0.0" type="line"/>
      <point x="-40" y="0" type="line"/>
      <point x="80.0" y="80.0" type="line"/>
      <point x="560.0" y="720.0" type="line"/>
      <point x="480" y="800" type="line"/>
      <point x="680" y="800" type="line"/>
      <point x="680.0" y="80.0" type="line"/>
      <point x="760" y="0" type="line"/>
      <point x="480.0" y="0.0" type="line"/>
      <point x="560.0" y="80.0" type="line"/>
      <point x="560" y="200" type="line"/>
      <point x="520" y="240" type="line"/>
      <point x="280.0" y="240.0" type="line"/>
      <point x="160.0" y="80.0" type="line"/>
    </contour>
    <contour>
      <point x="560.0" y="640.0" type="line"/>
      <point x="360" y="360" type="line"/>
      <point x="320.0" y="280.0" type="line"/>
      <point x="520.0" y="280.0" type="line"/>
      <point x="560.0" y="320.0" type="line"/>
    </contour>
    <contour>
      <point x="680" y="800" type="line"/>
      <point x="960" y="800" type="line"/>
      <point x="1120" y="840" type="line"/>
      <point x="1160" y="600" type="line"/>
      <point x="1120" y="600" type="line"/>
      <point x="1000" y="760" type="line"/>
      <point x="680" y="760" type="line"/>
    </contour>
    <contour>
      <point x="680" y="440" type="line"/>
      <point x="840" y="440" type="line"/>
      <point x="920" y="520" type="line"/>
      <point x="920" y="320" type="line"/>
      <point x="840" y="400" type="line"/>
      <point x="680" y="400" type="line"/>
    </contour>
    <contour>
      <point x="1000" y="240" type="line"/>
      <point x="960" y="-40" type="line"/>
      <point x="880" y="0" type="line"/>
      <point x="679" y="0" type="line"/>
      <point x="679" y="40" type="line"/>
      <point x="840" y="40" type="line"/>
      <point x="960" y="240" type="line"/>
    </contour>
    <contour>
      <point x="620.0" y="800.0" type="move" name="top"/>
    </contour>
  </outline>
</glyph>
<glyph name="germandbls" format="1">
  <advance width="760.0"/>
  <unicode hex="00DF"/>
  <outline>
    <contour>
      <point x="-240.0" y="-280.0" type="line"/>
      <point x="-120.0" y="-320.0" type="line"/>
      <point x="-40.0" y="-280.0" type="line"/>
      <point x="80.0" y="-160.0" type="line"/>
      <point x="360.0" y="480.0" type="line"/>
      <point x="440.0" y="640.0" type="line"/>
      <point x="520.0" y="720.0" type="line"/>
      <point x="600.0" y="720.0" type="line"/>
      <point x="640" y="640" type="line"/>
      <point x="640.0" y="560.0" type="line"/>
      <point x="680.0" y="520.0" type="line"/>
      <point x="760.0" y="520.0" type="line"/>
      <point x="720" y="680" type="line"/>
      <point x="680.0" y="760.0" type="line"/>
      <point x="560.0" y="800.0" type="line"/>
      <point x="440.0" y="760.0" type="line"/>
      <point x="360.0" y="640.0" type="line"/>
      <point x="280.0" y="560.0" type="line"/>
      <point x="200.0" y="520.0" type="line"/>
      <point x="120.0" y="520.0" type="line"/>
      <point x="120.0" y="480.0" type="line"/>
      <point x="240.0" y="480.0" type="line"/>
      <point x="-80.0" y="-240.0" type="line"/>
      <point x="-120.0" y="-240.0" type="line"/>
      <point x="-120.0" y="-160.0" type="line"/>
      <point x="-160.0" y="-120.0" type="line"/>
      <point x="-240.0" y="-160.0" type="line"/>
    </contour>
    <contour>
      <point x="360" y="40" type="line"/>
      <point x="360" y="160" type="line"/>
      <point x="320" y="200" type="line"/>
      <point x="240" y="160" type="line"/>
      <point x="240" y="40" type="line"/>
      <point x="320" y="0" type="line"/>
      <point x="400" y="0" type="line"/>
      <point x="520" y="40" type="line"/>
      <point x="600" y="120" type="line"/>
      <point x="600" y="200" type="line"/>
      <point x="560" y="400" type="line"/>
      <point x="560" y="480" type="line"/>
      <point x="640" y="520" type="line"/>
      <point x="760" y="520" type="line"/>
      <point x="640" y="560" type="line"/>
      <point x="480" y="520" type="line"/>
      <point x="440" y="440" type="line"/>
      <point x="440" y="360" type="line"/>
      <point x="480" y="200" type="line"/>
      <point x="480" y="120" type="line"/>
      <point x="400" y="40" type="line"/>
    </contour>
  </outline>
</glyph>
<glyph name="quoteright" format="1">
  <advance width="200"/>
  <unicode hex="2019"/>
  <outline>
    <contour>
      <point x="120.0" y="560.0" type="line"/>
      <point x="200.0" y="760.0" type="line"/>
      <point x="240.0" y="800.0" type="line"/>
      <point x="280.0" y="800.0" type="line"/>
      <point x="320.0" y="760.0" type="line"/>
      <point x="320.0" y="720.0" type="line"/>
      <point x="160.0" y="560.0" type="line"/>
    </contour>
  </outline>
</glyph>
<glyph name="fraction" format="1">
  <advance width="280"/>
  <unicode hex="2044"/>
  <outline>
    <contour>
      <point x="520" y="840" type="line"/>
      <point x="600" y="840" type="line"/>
      <point x="-80" y="-40" type="line"/>
      <point x="-160" y="-40" type="line"/>
    </contour>
  </outline>
</glyph>
<glyph name="approxequal" format="1">
  <advance width="833"/>
  <unicode hex="2248"/>
  <outline>
    <contour>
      <point x="240" y="520" type="line"/>
      <point x="360" y="440" type="line"/>
      <point x="440" y="520" type="line"/>
      <point x="520" y="520" type="line"/>
      <point x="640" y="400" type="line"/>
      <point x="600" y="360" type="line"/>
      <point x="480" y="440" type="line"/>
      <point x="400" y="360" type="line"/>
      <point x="320" y="360" type="line"/>
      <point x="200" y="480" type="line"/>
    </contour>
    <contour>
      <point x="240" y="320" type="line"/>
      <point x="360" y="240" type="line"/>
      <point x="440" y="320" type="line"/>
      <point x="520" y="320" type="line"/>
      <point x="640" y="200" type="line"/>
      <point x="600" y="160" type="line"/>
      <point x="480" y="240" type="line"/>
      <point x="400" y="160" type="line"/>
      <point x="320" y="160" type="line"/>
      <point x="200" y="280" type="line"/>
    </contour>
  </outline>
</glyph>
<glyph name="notequal" format="1">
  <advance width="520"/>
  <unicode hex="2260"/>
  <outline>
    <contour>
      <point x="320" y="560" type="line"/>
      <point x="400" y="560" type="line"/>
      <point x="160" y="80" type="line"/>
      <point x="80" y="80" type="line"/>
    </contour>
    <component base="equal" xOffset="-40"/>
  </outline>
</glyph>
